<?xml version="1.0" encoding="UTF-8" standalone="no"?>
<svg
   xmlns:dc="http://purl.org/dc/elements/1.1/"
   xmlns:cc="http://creativecommons.org/ns#"
   xmlns:rdf="http://www.w3.org/1999/02/22-rdf-syntax-ns#"
   xmlns:svg="http://www.w3.org/2000/svg"
   xmlns="http://www.w3.org/2000/svg"
   id="svg10"
   version="1.1"
   fill="#000"
   viewBox="0 0 14 13"
   class="css-r5ic95">
  <metadata
     id="metadata16">
    <rdf:RDF>
      <cc:Work
         rdf:about="">
        <dc:format>image/svg+xml</dc:format>
        <dc:type
           rdf:resource="http://purl.org/dc/dcmitype/StillImage" />
        <dc:title></dc:title>
      </cc:Work>
    </rdf:RDF>
  </metadata>
  <defs
     id="defs14" />
  <path
     id="path2"
     d="M13.1,11.7H3.5V1.2h9.6V11.7zM13.1,0.4H3.5C3,0.4,2.6,0.8,2.6,1.2v2.2H0.9C0.4,3.4,0,3.8,0,4.3v5.2v1.5c0,0.8,0.8,1.5,1.8,1.5h1.7h0h7.4h2.2c0.5,0,0.9-0.4,0.9-0.9V1.2C14,0.8,13.6,0.4,13.1,0.4" />
  <polygon
     id="polygon4"
     points="10.9,3 5.2,3 5.2,3.9 11.4,3.9 11.4,3" />
  <rect
     id="rect6"
     height="0.9"
     width="6.1"
     y="4.7"
     x="5.2" />
  <rect
     id="rect8"
     height="0.9"
     width="6.1"
     y="6.5"
     x="5.2" />
</svg>
